<svg viewBox="-23 0 512 512.00011" xmlns="http://www.w3.org/2000/svg"><path d="m367.664062 34.136719c2.789063-5.683594 3.195313-12.113281 1.148438-18.101563-2.046875-5.988281-6.300781-10.824218-11.984375-13.613281-11.734375-5.753906-25.957031-.894531-31.714844 10.835937l-23.90625 48.722657c-20.226562-10.765625-43.289062-16.878907-67.757812-16.878907s-47.53125 6.113282-67.757813 16.878907l-23.90625-48.722657c-5.757812-11.730468-19.984375-16.59375-31.714844-10.835937-5.683593 2.789063-9.9375 7.621094-11.984374 13.613281-2.046876 5.988282-1.640626 12.417969 1.148437 18.097656l28.144531 57.355469c-23.964844 25.832031-38.640625 60.390625-38.640625 98.320313 0 4.179687 3.386719 7.566406 7.566407 7.566406h274.289062c4.175781 0 7.5625-3.386719 7.5625-7.566406 0-37.929688-14.675781-72.488282-38.636719-98.320313zm-28.96875-14.21875c2.078126-4.238281 7.226563-6 11.46875-3.917969 4.242188 2.082031 6 7.226562 3.917969 11.472656l-25.988281 52.957032c-4.398438-3.8125-9.035156-7.367188-13.875-10.632813zm-221.960937-3.917969c4.242187-2.082031 9.390625-.324219 11.46875 3.917969l24.476563 49.878906c-4.839844 3.269531-9.476563 6.820313-13.878907 10.636719l-25.984375-52.960938c-2.085937-4.246094-.324218-9.390625 3.917969-11.472656zm-12.648437 166.246094c3.929687-67.945313 60.449218-122.019532 129.363281-122.019532 68.914062 0 125.433593 54.074219 129.363281 122.019532zm0 0"/><path d="m431.097656 214.515625c-19.738281 0-35.796875 16.058594-35.796875 35.800781v121.007813c0 19.742187 16.058594 35.800781 35.796875 35.800781 19.742188 0 35.800782-16.058594 35.800782-35.800781v-121.007813c0-19.742187-16.058594-35.800781-35.800782-35.800781zm20.675782 156.808594c0 11.402343-9.273438 20.675781-20.675782 20.675781-11.398437 0-20.671875-9.273438-20.671875-20.675781v-121.007813c0-11.402344 9.273438-20.675781 20.671875-20.675781 11.402344 0 20.675782 9.273437 20.675782 20.675781zm0 0"/><path d="m370.59375 214.515625h-39.328125c-4.175781 0-7.5625 3.386719-7.5625 7.5625 0 4.179687 3.386719 7.5625 7.5625 7.5625h31.765625v178.492187h-32.773438c-4.179687 0-7.5625 3.386719-7.5625 7.5625v60.507813c0 11.398437-9.273437 20.671875-20.671874 20.671875-11.402344 0-20.675782-9.273438-20.675782-20.671875v-60.507813c0-4.175781-3.382812-7.5625-7.5625-7.5625h-80.671875c-4.179687 0-7.5625 3.386719-7.5625 7.5625v60.507813c0 11.398437-9.273437 20.671875-20.675781 20.671875-11.398438 0-20.671875-9.273438-20.671875-20.671875v-60.507813c0-4.175781-3.382813-7.5625-7.5625-7.5625h-32.773437v-178.492187h190.589843c4.179688 0 7.566407-3.382813 7.566407-7.5625 0-4.175781-3.386719-7.5625-7.566407-7.5625h-198.152343c-4.179688 0-7.5625 3.386719-7.5625 7.5625v193.617187c0 4.179688 3.382812 7.5625 7.5625 7.5625h32.773437v52.945313c0 19.738281 16.058594 35.796875 35.796875 35.796875 19.742188 0 35.800781-16.058594 35.800781-35.796875v-52.945313h65.546875v52.945313c0 19.738281 16.058594 35.796875 35.800782 35.796875 19.738281 0 35.796874-16.058594 35.796874-35.796875v-52.945313h32.773438c4.179688 0 7.5625-3.382812 7.5625-7.5625v-193.617187c0-4.175781-3.386719-7.5625-7.5625-7.5625zm0 0"/><path d="m35.800781 214.515625c-19.742187 0-35.800781 16.058594-35.800781 35.800781v121.007813c0 19.742187 16.058594 35.800781 35.800781 35.800781 19.738281 0 35.796875-16.058594 35.796875-35.800781v-121.007813c0-19.742187-16.058594-35.800781-35.796875-35.800781zm20.671875 156.808594c0 11.402343-9.273437 20.675781-20.671875 20.675781-11.402343 0-20.675781-9.273438-20.675781-20.675781v-121.007813c0-11.402344 9.273438-20.675781 20.675781-20.675781 11.398438 0 20.671875 9.273437 20.671875 20.675781zm0 0"/><path d="m168.910156 117.707031c-13.066406 0-23.699218 10.632813-23.699218 23.699219s10.632812 23.699219 23.699218 23.699219 23.699219-10.632813 23.699219-23.699219-10.632813-23.699219-23.699219-23.699219zm0 32.269531c-4.726562 0-8.570312-3.84375-8.570312-8.570312s3.84375-8.570312 8.570312-8.570312c4.726563 0 8.570313 3.84375 8.570313 8.570312s-3.84375 8.570312-8.570313 8.570312zm0 0"/><path d="m297.988281 117.707031c-13.066406 0-23.699219 10.632813-23.699219 23.699219s10.632813 23.699219 23.699219 23.699219c13.066407 0 23.699219-10.632813 23.699219-23.699219s-10.632812-23.699219-23.699219-23.699219zm0 32.269531c-4.726562 0-8.570312-3.84375-8.570312-8.570312s3.84375-8.570312 8.570312-8.570312c4.726563 0 8.570313 3.84375 8.570313 8.570312s-3.84375 8.570312-8.570313 8.570312zm0 0"/></svg>