<svg id="Capa_1" enable-background="new 0 0 511.044 511.044" height="512" viewBox="0 0 511.044 511.044" width="512" xmlns="http://www.w3.org/2000/svg"><g><path d="m432.298 0h-211.097c-103.362.052-187.454 84.928-187.454 189.208l.1 278.759c.003 8.086 3.942 15.714 10.536 20.406 6.542 4.654 14.962 5.868 22.525 3.244 7.203-2.498 15.024-.705 20.411 4.681l.213.213c19.378 19.378 50.908 19.378 70.297-.012l.2-.2c7.681-7.681 20.179-7.681 27.859 0l.213.213c9.688 9.689 22.416 14.534 35.143 14.534s25.454-4.845 35.143-14.534l.213-.213c7.681-7.681 20.179-7.681 27.859 0l.213.213c19.378 19.378 50.908 19.378 70.297-.012l.2-.2c5.387-5.387 13.207-7.18 20.413-4.681 7.562 2.623 15.981 1.411 22.524-3.242 6.595-4.69 10.535-12.318 10.539-20.404l.196-377.973h23.457c24.813 0 45-20.187 45-45s-20.187-45-45-45zm0 60h-72.667v30h19.209l-.192 371.458c-16.038-3.098-32.979 1.916-44.704 13.639l-.2.2c-7.681 7.681-20.179 7.681-27.859 0l-.213-.213c-19.377-19.378-50.907-19.378-70.285 0l-.213.213c-7.681 7.681-20.179 7.681-27.859 0l-.213-.213c-9.688-9.688-22.411-14.532-35.138-14.532-12.73 0-25.463 4.848-35.16 14.544l-.2.2c-7.681 7.682-20.179 7.681-27.859 0l-.213-.213c-11.711-11.712-28.651-16.724-44.688-13.628l-.098-272.255c0-87.74 70.641-159.158 157.462-159.202h211.089c8.271 0 15 6.729 15 15s-6.728 15.002-14.999 15.002z"/><path d="m158.335 174.734c-24.813 0-45 20.187-45 45s20.187 45 45 45 45-20.187 45-45-20.187-45-45-45zm0 60c-8.271 0-15-6.729-15-15s6.729-15 15-15 15 6.729 15 15-6.729 15-15 15z"/><path d="m284.26 174.734c-24.813 0-45 20.187-45 45s20.187 45 45 45 45-20.187 45-45-20.187-45-45-45zm0 60c-8.271 0-15-6.729-15-15s6.729-15 15-15 15 6.729 15 15-6.729 15-15 15z"/></g></svg>