<svg id="Capa_1" enable-background="new 0 0 512 512" height="512" viewBox="0 0 512 512" width="512" xmlns="http://www.w3.org/2000/svg"><g><path d="m11.322 198.699c3.453 2.272 8.097 1.314 10.372-2.139 1.709-2.598 3.75-5.001 6.064-7.142 14.384-13.307 37.065-13.485 51.636-.402 7.609 6.832 12.126 16.187 12.719 26.345.572 9.801 4.88 19.192 12.127 26.441 1.758 1.757 4.066 2.635 6.373 2.635 2.309 0 4.616-.878 6.374-2.635l50.822-50.823c3.119-3.121 8.071-3.317 11.421-.589.206.223.393.458.61.675l46.156 46.155c-3.687 2.364-7.826 3.754-12.058 4.001-8.392.49-16.64 2.988-23.854 7.222-3.566 2.093-4.761 6.681-2.668 10.248 1.395 2.376 3.896 3.699 6.465 3.699 1.288 0 2.592-.332 3.783-1.031 5.181-3.041 11.111-4.835 17.149-5.188 9.802-.574 19.192-4.881 26.44-12.127 4.648-4.462 2.521-11.259-2.006-14.882l-48.774-48.774c-3.441-3.08-3.328-8.735-.043-11.988l46.093-46.094c2.237 3.602 3.551 7.618 3.791 11.724.826 14.123 7.099 27.125 17.662 36.611 20.265 18.197 51.806 17.954 71.809-.546 10.776-9.969 16.868-23.523 17.153-38.167.286-14.649-5.262-28.421-15.621-38.78-9.221-9.22-21.464-14.734-34.473-15.523-4.165-.253-8.22-1.571-11.836-3.804l46.089-46.087c1.613-1.613 3.757-2.501 6.037-2.501 2.279 0 4.423.888 6.036 2.501l51.901 51.901c2.925 2.923 7.665 2.923 10.59 0l2.1-2.1c7.222-7.223 11.529-16.642 12.129-26.523.568-9.355 4.534-18.159 11.165-24.79 7.451-7.453 17.349-11.431 27.899-11.238 10.534.205 20.286 4.59 27.464 12.348 13.306 14.383 13.483 37.064.4 51.635-6.831 7.609-16.186 12.126-26.345 12.719-9.803.574-19.193 4.881-26.44 12.128l-2.096 2.096c-2.924 2.925-2.924 7.665 0 10.59l51.9 51.901c3.329 3.329 3.329 8.744 0 12.074l-11.387 11.388c-2.924 2.924-2.924 7.665.001 10.589 2.923 2.923 7.664 2.923 10.589-.001l11.387-11.387c9.168-9.169 9.168-24.085 0-33.253l-46.35-46.35c3.98-2.865 8.568-4.55 13.27-4.825 14.124-.826 27.127-7.1 36.614-17.664 18.196-20.267 17.953-51.81-.552-71.811-9.968-10.774-23.522-16.865-38.164-17.15-14.657-.287-28.422 5.262-38.78 15.621-9.22 9.221-14.734 21.463-15.523 34.473-.29 4.771-1.978 9.4-4.836 13.386l-46.346-46.347c-9.169-9.167-24.085-9.168-33.253 0l-51.095 51.094c-1.629 1.63-2.527 3.797-2.527 6.101s.898 4.472 2.53 6.105c7.223 7.222 16.642 11.529 26.522 12.129 9.355.568 18.16 4.534 24.791 11.165 7.452 7.452 11.443 17.359 11.237 27.899-.205 10.534-4.59 20.288-12.349 27.465-14.384 13.305-37.064 13.48-51.635.398-7.607-6.832-12.124-16.187-12.717-26.345-.574-9.802-4.881-19.191-12.127-26.438-3.365-3.363-8.837-3.364-12.204 0l-51.094 51.094c-4.359 4.36-6.62 10.02-6.833 15.743-5.739.203-11.417 2.465-15.788 6.835l-46.155 46.157c-2.364-3.687-3.754-7.827-4.001-12.058-.826-14.124-7.1-27.127-17.664-36.614-20.266-18.194-51.807-17.952-71.81.551-3.203 2.962-6.031 6.293-8.406 9.903-2.272 3.453-1.314 8.097 2.14 10.371z"/><path d="m460.449 241.228c-4.295-.26-8.472-1.655-12.171-4.014l10.318-10.317c2.924-2.925 2.924-7.665 0-10.59-2.925-2.923-7.665-2.923-10.59 0l-16.068 16.068c-3.45 3.393-2.583 8.808 1.082 11.672 7.223 7.222 16.642 11.529 26.522 12.129 9.356.568 18.161 4.534 24.792 11.166 7.452 7.452 11.442 17.359 11.237 27.9-.206 10.534-4.591 20.286-12.35 27.463-14.386 13.307-37.066 13.479-51.635.398-7.607-6.832-12.124-16.186-12.717-26.344-.574-9.803-4.881-19.192-12.127-26.439-2.863-3.664-8.279-4.526-11.669-1.079l-51.901 51.901c-3.12 3.121-8.073 3.317-11.422.588-.206-.222-.392-.457-.608-.672l-50.802-50.802c-3.496-3.33-9.273-3.516-12.815.067-7.222 7.223-11.529 16.642-12.129 26.522-.568 9.355-4.534 18.159-11.165 24.79-7.451 7.453-17.354 11.447-27.899 11.238-10.534-.205-20.286-4.59-27.463-12.347-8.72-9.426-12.094-22.597-9.027-35.231.976-4.019-1.491-8.068-5.51-9.043-4.021-.98-8.067 1.491-9.043 5.51-4.254 17.523.451 35.816 12.587 48.934 9.968 10.774 23.522 16.865 38.164 17.15.359.007.717.011 1.073.011 14.247-.001 27.602-5.527 37.707-15.632 9.22-9.221 14.734-21.463 15.523-34.473.26-4.294 1.654-8.471 4.014-12.171l46.15 46.151c.233.234.473.458.715.681 2.634 3.347 2.414 8.223-.672 11.307l-51.901 51.901c-4.045 3.951-1.933 9.671 2.1 12.69 7.223 7.222 16.642 11.529 26.522 12.129 9.355.568 18.16 4.534 24.791 11.165 7.452 7.451 11.443 17.359 11.238 27.899-.205 10.533-4.59 20.285-12.348 27.463-14.382 13.306-37.062 13.483-51.635.402-7.609-6.832-12.126-16.187-12.719-26.346-.574-9.804-4.882-19.194-12.127-26.438-2.938-4.011-8.822-6.13-12.687-2.099l-51.901 51.901c-3.329 3.33-8.745 3.33-12.074 0l-51.901-51.901c-3.289-3.434-8.909-2.558-11.671 1.082-7.222 7.223-11.529 16.642-12.129 26.522-.568 9.355-4.534 18.16-11.166 24.792-7.451 7.452-17.333 11.422-27.9 11.237-10.534-.206-20.286-4.591-27.463-12.35-13.306-14.384-13.481-37.064-.397-51.635 6.83-7.607 16.184-12.124 26.343-12.717 9.803-.574 19.192-4.881 26.439-12.127 3.665-2.864 4.528-8.279 1.079-11.669l-51.9-51.901c-3.33-3.329-3.33-8.745 0-12.074l50.823-50.822c1.702-1.702 2.639-3.966 2.639-6.374 0-2.407-.937-4.67-2.643-6.376-7.223-7.222-16.642-11.529-26.522-12.129-9.355-.568-18.16-4.534-24.791-11.164-4.972-4.973-8.479-11.191-10.141-17.979-.983-4.017-5.037-6.472-9.054-5.493-4.017.983-6.476 5.037-5.493 9.054 2.313 9.449 7.187 18.096 14.098 25.008 9.221 9.22 21.464 14.734 34.473 15.523 4.294.26 8.471 1.654 12.171 4.014l-46.151 46.15c-9.167 9.169-9.167 24.086 0 33.253l46.157 46.156c-3.686 2.364-7.826 3.754-12.058 4.001-14.124.827-27.126 7.099-36.611 17.662-18.197 20.265-17.957 51.808.546 71.809 9.968 10.776 23.522 16.868 38.165 17.154 14.656.284 28.423-5.264 38.781-15.621 9.221-9.221 14.735-21.464 15.524-34.474.26-4.294 1.654-8.471 4.014-12.171l46.149 46.15c9.169 9.167 24.086 9.167 33.254 0l46.35-46.35c2.865 3.979 4.55 8.567 4.825 13.27.826 14.124 7.1 27.127 17.664 36.614 10.025 9 22.804 13.489 35.585 13.489 13.059-.001 26.117-4.689 36.226-14.041 10.774-9.968 16.865-23.522 17.15-38.164.285-14.649-5.263-28.421-15.622-38.779-9.221-9.22-21.464-14.734-34.473-15.523-4.771-.29-9.399-1.978-13.385-4.836l46.347-46.346c4.352-4.352 6.612-10 6.832-15.713 5.965-.208 11.545-2.623 15.788-6.866l46.156-46.157c2.364 3.686 3.754 7.826 4.001 12.058.826 14.123 7.099 27.125 17.662 36.611 20.264 18.197 51.807 17.957 71.809-.546 10.776-9.968 16.868-23.522 17.154-38.165.285-14.65-5.263-28.423-15.621-38.78-9.219-9.221-21.461-14.735-34.472-15.525z"/></g></svg>