<?xml version="1.0"?>
<svg xmlns="http://www.w3.org/2000/svg" id="Outline" viewBox="0 0 512 512" width="512" height="512"><path d="M316.206,358.805A8,8,0,0,0,320,352V296a64,64,0,0,0-128,0v56H169.941a31.793,31.793,0,0,0-22.628,9.373L124.687,384H112v-8a8,8,0,0,0-8-8H32v16H96v96H32v16h72a8,8,0,0,0,8-8v-8h12.773a89.31,89.31,0,0,0,61.168,24H232a32.036,32.036,0,0,0,32-32V416a32.056,32.056,0,0,0-24-30.987V296a16,16,0,0,1,32,0v40a8,8,0,0,0,4.422,7.155l32,16A8,8,0,0,0,316.206,358.805ZM248,416v56a16.019,16.019,0,0,1-16,16H185.941a73.453,73.453,0,0,1-52.284-21.657A8,8,0,0,0,128,464H112V400h16a8,8,0,0,0,5.657-2.343l24.971-24.971A15.891,15.891,0,0,1,169.941,368H192v16H176v16h56A16.019,16.019,0,0,1,248,416Zm56-76.944-16-8V296a32,32,0,0,0-64,0v88H208V296a48,48,0,0,1,96,0Z"/><path d="M456,16H56a8,8,0,0,0-8,8V352H64V32H248V216h16V32H448V432H280v16H456a8,8,0,0,0,8-8V24A8,8,0,0,0,456,16Z"/><path d="M232,224V56a8,8,0,0,0-8-8H88a8,8,0,0,0-8,8V352H96V64H216V224Z"/><path d="M280,376v32a8,8,0,0,0,8,8H424a8,8,0,0,0,8-8V56a8,8,0,0,0-8-8H288a8,8,0,0,0-8,8V224h16V64H416V400H296V376Z"/><path d="M398.806,179.794A8,8,0,0,0,392,176H364.529L342.86,139.884a8,8,0,0,0-14.552,1.918l-16,56,15.384,4.4,10.935-38.271,14.513,24.189A8,8,0,0,0,360,192h19.056l-10.211,20.422a8,8,0,0,0,.5,8.016l13.665,20.5-10.775,26.939-15.8-10.531a8,8,0,0,0-12.376,7.648l6.425,51.4-11.957-3.985-5.06,15.178,24,8a8,8,0,0,0,10.468-8.581l-5.832-46.655,9.456,6.3a8,8,0,0,0,11.866-3.685l16-40a8,8,0,0,0-.772-7.409l-13.425-20.137,13.924-27.847A8,8,0,0,0,398.806,179.794Z"/><path d="M176.239,161.94l15.522-3.88-16-64a8,8,0,0,0-13.418-3.717l-32,32a8,8,0,0,0-1.933,8.187l5.471,16.41-16.411,5.471a8,8,0,0,0-4.126,12.027l13.425,20.137-21.924,43.847a8,8,0,0,0,2.717,10.234L127.1,251.685l-6.949,34.746A8,8,0,0,0,128,296h24a8,8,0,0,0,6.4-3.2l24-32-12.8-9.6L148,280H137.759l6.086-30.431a8,8,0,0,0-3.407-8.225l-18.125-12.083,20.842-41.683a8,8,0,0,0-.5-8.016l-10.189-15.285,14.063-4.688a8,8,0,0,0,5.06-10.119l-6.437-19.309,18.513-18.513Z"/></svg>
