<?xml version="1.0" encoding="iso-8859-1"?>
<!-- Generator: Adobe Illustrator 19.0.0, SVG Export Plug-In . SVG Version: 6.00 Build 0)  -->
<svg version="1.1" id="Capa_1" xmlns="http://www.w3.org/2000/svg" xmlns:xlink="http://www.w3.org/1999/xlink" x="0px" y="0px"
	 viewBox="0 0 512 512" style="enable-background:new 0 0 512 512;" xml:space="preserve">
<path style="fill:#0071BC;" d="M403.525,216.949H65.085c-14.379,0-26.034-11.655-26.034-26.034
	c0-14.379,11.655-26.034,26.034-26.034h338.441V216.949z"/>
<circle style="fill:#FED856;" cx="247.322" cy="173.559" r="95.458"/>
<path style="fill:#29ABE2;" d="M39.051,269.017v216.949c0,14.379,11.655,26.034,26.034,26.034l0,0h381.831V216.949H65.085
	c-14.379,0-26.034-11.655-26.034-26.034V269.017z"/>
<g>
	<path style="fill:#CD9829;" d="M238.644,17.356H256v52.068h-17.356V17.356z"/>
	<path style="fill:#CD9829;" d="M273.356,52.068h17.356V84.61h-17.356V52.068z"/>
	<path style="fill:#CD9829;" d="M203.932,34.712h17.356V84.61h-17.356V34.712z"/>
</g>
<path style="fill:#0071BC;" d="M420.881,312.407h34.712c9.589,0,17.356,7.767,17.356,17.356v69.424
	c0,9.589-7.767,17.356-17.356,17.356H325.424c-28.759,0-52.068-23.309-52.068-52.068c0-28.759,23.309-52.068,52.068-52.068H420.881z
	"/>
<path style="fill:#FBB03B;" d="M65.085,216.949h17.356V512H65.085V216.949z"/>
<g>
	<path style="fill:#CD9829;" d="M273.356,17.356h17.356v17.356h-17.356V17.356z"/>
	<path style="fill:#CD9829;" d="M203.932,0h17.356v17.356h-17.356V0z"/>
</g>
<circle style="fill:#FBB03B;" cx="325.424" cy="364.475" r="17.356"/>
<g>
	<path style="fill:#CD9829;" d="M256,131.428v-9.936h-17.356v9.936c-13.017,4.053-20.28,17.885-16.236,30.894
		c2.005,6.43,6.543,11.767,12.574,14.77l16.913,8.461c3.662,1.831,5.146,6.283,3.315,9.945c-1.25,2.508-3.818,4.096-6.621,4.096
		h-2.534c-4.087-0.009-7.402-3.324-7.411-7.411v-1.267h-17.356v1.267c0.017,13.676,11.09,24.75,24.767,24.767h2.534
		c13.676,0,24.767-11.09,24.767-24.767c0-9.381-5.302-17.963-13.694-22.155l-16.913-8.461c-3.662-1.831-5.146-6.283-3.315-9.945
		c1.25-2.508,3.818-4.096,6.621-4.096h2.534c4.087,0.009,7.402,3.324,7.411,7.411v1.267h17.356v-1.267
		C273.313,144.15,266.292,134.639,256,131.428z"/>
	<path style="fill:#CD9829;" d="M290.712,164.881h17.356v17.356h-17.356V164.881z"/>
	<path style="fill:#CD9829;" d="M186.576,164.881h17.356v17.356h-17.356V164.881z"/>
</g>
<g>
</g>
<g>
</g>
<g>
</g>
<g>
</g>
<g>
</g>
<g>
</g>
<g>
</g>
<g>
</g>
<g>
</g>
<g>
</g>
<g>
</g>
<g>
</g>
<g>
</g>
<g>
</g>
<g>
</g>
</svg>
